<svg width="429" height="498" viewBox="0 0 429 498" fill="none" xmlns="http://www.w3.org/2000/svg">
    <path d="M223.175 0.83676C185.97 29.8413 162.04 75.0807 162.04 125.911C162.04 213.448 233.003 284.411 320.54 284.411C362.072 284.411 399.872 268.435 428.133 242.296C400.198 300.677 340.58 341.002 271.54 341.002C175.719 341.002 98.0404 263.323 98.0404 167.502C98.0405 88.4661 150.889 21.7773 223.175 0.83676Z" fill="#D9D9D9"/>
    <path d="M1.86816 495.884L398.89 43.1392" stroke="#D9D9D9" stroke-width="3" stroke-linecap="round"/>
    <path d="M339.134 108.156C341.714 106.44 344.885 109.286 343.457 112.036L328.42 141C328.032 141.748 327.976 142.624 328.266 143.415L337.862 169.578C338.69 171.836 336.657 174.102 334.322 173.522L307.277 166.803C306.46 166.6 305.594 166.75 304.893 167.217L277.719 185.288C275.139 187.005 271.967 184.158 273.395 181.408L288.432 152.445C288.821 151.697 288.876 150.82 288.586 150.029L278.991 123.867C278.162 121.608 280.196 119.342 282.531 119.922L309.575 126.641C310.393 126.845 311.258 126.695 311.96 126.228L339.134 108.156Z" fill="#D9D9D9"/>
</svg>
