<svg xmlns="http://www.w3.org/2000/svg" version="1.1" xmlns:xlink="http://www.w3.org/1999/xlink" xmlns:svgjs="http://svgjs.dev/svgjs" id="BgenPttrnSvgRootPreview" width="100%" height="100%"><defs><pattern x="0" y="0" width="1" height="1" patternUnits="userSpaceOnUse" id="BgenPttrnLayer1"><g id="PatternRootContent1"><g id="BgenPttrnLayer1background"><rect width="1" height="1" id="BgenPttrnBackground1" class="color_1 fill_color_1" fill="#0d0d0f"></rect></g></g></pattern><pattern x="0" y="0" width="119" height="84" patternUnits="userSpaceOnUse" id="BgenPttrnLayer2" patternTransform="matrix(1.15,0,0,1.15,0,0)"><g id="PatternRootContent2"><g id="BgenPttrnLayer2Element8"><use xlink:href="#BgenPttrnElement8" x="1.49468994140625" y="1" transform="translate(59.5, 21) scale(1) translate(-59.5, -21) rotate(0, 59.5, 21)"></use><use xlink:href="#BgenPttrnElement8" x="60.99468994140625" y="43" transform="translate(119, 63) scale(1) translate(-119, -63) rotate(0, 119, 63)"></use><use xlink:href="#BgenPttrnElement8" x="-58.00531005859375" y="43" transform="translate(0, 63) scale(1) translate(0, -63) rotate(0, 0, 63)"></use></g></g></pattern><symbol id="BgenPttrnElement8"><g class="color_9 fill_color_9" fill="#0f0f0f"><g><path d="M37.492,17.875l-6.805,6.683c-0.407,0.4,-0.592,0.975,-0.493,1.537l1.647,9.395c0.248,1.416,-1.235,2.502,-2.51,1.838l-8.459,-4.407c-0.506,-0.264,-1.11,-0.262,-1.614,0.006l-8.426,4.47c-1.27,0.674,-2.762,-0.401,-2.524,-1.819l1.577,-9.407c0.094,-0.563,-0.094,-1.137,-0.505,-1.534l-6.855,-6.632c-1.033,-1,-0.472,-2.75,0.95,-2.962l9.434,-1.407c0.565,-0.084,1.052,-0.441,1.303,-0.954l4.189,-8.569c0.632,-1.292,2.47,-1.299,3.111,-0.012l4.253,8.537c0.255,0.511,0.744,0.864,1.31,0.944l9.444,1.336C37.943,15.121,38.518,16.868,37.492,17.875Z"></path><path d="M79.551,19.812000274658203c-1.064,-0.434,-2.151,-0.815,-3.242,-1.173c-0.626,-0.206,-1.213,-0.433,-1.87,-0.432c-0.532,0.001,-1.067,0.016,-1.601,0.016c-2.848,0,-5.697,0,-8.545,0c2.123,-2.123,4.246,-4.246,6.369,-6.369c0.412,-0.412,0.925,-0.814,1.249,-1.292c0.352,-0.519,0.603,-1.162,0.88,-1.724c0.482,-0.978,0.948,-1.967,1.352,-2.98c-1.013,0.404,-2.002,0.87,-2.98,1.352c-0.57,0.281,-1.191,0.535,-1.724,0.88c-0.48,0.311,-0.885,0.842,-1.292,1.249c-2.123,2.123,-4.246,4.246,-6.369,6.369c0,-3.002,0,-6.004,0,-9.007c0,-0.583,0.078,-1.23,-0.03,-1.797c-0.118,-0.615,-0.395,-1.249,-0.597,-1.842C60.8,2.031,60.43,1.002,60,0c-0.43,1.002,-0.8,2.03,-1.151,3.063c-0.204,0.602,-0.464,1.22,-0.597,1.842c-0.12,0.56,-0.03,1.221,-0.03,1.797c0,3.002,0,6.004,0,9.007c-2.123,-2.123,-4.246,-4.246,-6.369,-6.369c-0.412,-0.412,-0.814,-0.925,-1.292,-1.249C50.043,7.739,49.4,7.487,48.837,7.210000038146973c-0.978,-0.482,-1.967,-0.948,-2.98,-1.352c0.404,1.013,0.87,2.002,1.352,2.98c0.281,0.57,0.535,1.191,0.88,1.724c0.311,0.48,0.842,0.885,1.249,1.292c2.123,2.123,4.246,4.246,6.369,6.369c-2.952,0,-5.903,0,-8.855,0c-0.637,0,-1.327,-0.115,-1.949,0.007c-0.621,0.122,-1.245,0.391,-1.842,0.595C42.03,19.178,40.995,19.548,40,20c0.949,0.428,1.931,0.786,2.915,1.124c0.632,0.218,1.328,0.53,1.99,0.646c0.621,0.109,1.312,0.007,1.949,0.007c2.952,0,5.903,0,8.855,0c-2.087,2.087,-4.174,4.174,-6.261,6.261c-0.451,0.451,-1.02,0.857,-1.373,1.383c-0.353,0.525,-0.603,1.157,-0.881,1.723c-0.481,0.98,-0.951,1.974,-1.335,2.997c0.974,-0.368,1.921,-0.81,2.856,-1.266c0.601,-0.293,1.314,-0.564,1.864,-0.95c0.516,-0.362,0.933,-0.923,1.383,-1.373c2.087,-2.087,4.174,-4.174,6.261,-6.261c0,2.952,0,5.903,0,8.855c0,0.637,-0.115,1.327,0.007,1.949c0.122,0.621,0.391,1.245,0.595,1.842C59.178,37.97,59.548,39.005,60,40c0.428,-0.949,0.786,-1.931,1.124,-2.915c0.218,-0.632,0.53,-1.328,0.646,-1.99c0.109,-0.621,0.007,-1.312,0.007,-1.949c0,-2.952,0,-5.903,0,-8.855c2.087,2.087,4.174,4.174,6.261,6.261c0.451,0.451,0.857,1.02,1.383,1.373c0.525,0.353,1.157,0.603,1.723,0.881c0.98,0.481,1.974,0.951,2.997,1.335c-0.368,-0.974,-0.81,-1.921,-1.266,-2.856c-0.293,-0.601,-0.564,-1.314,-0.95,-1.864c-0.362,-0.516,-0.923,-0.933,-1.373,-1.383c-2.087,-2.087,-4.174,-4.174,-6.261,-6.261c3.002,0,6.004,0,9.007,0c0.583,0,1.23,0.078,1.797,-0.03c0.615,-0.118,1.249,-0.395,1.842,-0.597C77.969,20.8,78.998,20.43,80,20C79.851,19.936,79.702,19.872,79.551,19.812000274658203C79.404,19.752,79.697,19.87,79.551,19.812000274658203Z"></path></g><path d="M98.005,0c0,11.046,-8.954,20,-20,20c11.046,0,20,8.954,20,20c0,-11.046,8.954,-20,20,-20C106.959,20,98.005,11.046,98.005,0ZM98.005,25c-2.761,0,-5,-2.239,-5,-5c0,-2.761,2.239,-5,5,-5s5,2.239,5,5C103.005,22.761,100.766,25,98.005,25Z"></path></g></symbol></defs><rect width="100%" height="100%" id="BgenPttrnRctLayer1" fill="url(&quot;#BgenPttrnLayer1&quot;)"></rect><rect width="100%" height="100%" id="BgenPttrnRctLayer2" fill="url(&quot;#BgenPttrnLayer2&quot;)"></rect></svg>